<svg width="152" height="24" viewBox="0 0 152 24" fill="none" xmlns="http://www.w3.org/2000/svg">
<path d="M6.54785 21.0664L10.7959 1.67188H13.3301L14.707 3.32715L10.1807 23H7.38281L6.54785 21.0664ZM5.41992 1.67188L9.00879 21.2129L8.08594 23H4.84863L0.322266 1.67188H5.41992ZM17.0361 21.1104L20.5957 1.67188H25.6787L21.1523 23H17.9297L17.0361 21.1104ZM15.1611 1.67188L19.5117 21.1836L18.6328 23H15.835L11.2061 3.29785L12.6416 1.67188H15.1611ZM65.874 21.0664L70.1221 1.67188H72.6562L74.0332 3.32715L69.5068 23H66.709L65.874 21.0664ZM64.7461 1.67188L68.335 21.2129L67.4121 23H64.1748L59.6484 1.67188H64.7461ZM76.3623 21.1104L79.9219 1.67188H85.0049L80.4785 23H77.2559L76.3623 21.1104ZM74.4873 1.67188L78.8379 21.1836L77.959 23H75.1611L70.5322 3.29785L71.9678 1.67188H74.4873Z" fill="#FFA400"/>
<path d="M35.1416 23.293C33.8525 23.293 32.7002 23.0928 31.6846 22.6924C30.6689 22.2822 29.8096 21.7207 29.1064 21.0078C28.4131 20.2949 27.8809 19.4746 27.5098 18.5469C27.1484 17.6191 26.9678 16.6377 26.9678 15.6025V15.0459C26.9678 13.8838 27.1289 12.8096 27.4512 11.8232C27.7734 10.8271 28.252 9.95801 28.8867 9.21582C29.5215 8.47363 30.3174 7.89746 31.2744 7.4873C32.2314 7.06738 33.3447 6.85742 34.6143 6.85742C35.7373 6.85742 36.7432 7.03809 37.6318 7.39941C38.5205 7.76074 39.2725 8.27832 39.8877 8.95215C40.5127 9.62598 40.9863 10.4414 41.3086 11.3984C41.6406 12.3555 41.8066 13.4297 41.8066 14.6211V16.6279H28.8574V13.5371H36.9873V13.1562C36.9971 12.6289 36.9043 12.1797 36.709 11.8086C36.5234 11.4375 36.25 11.1543 35.8887 10.959C35.5273 10.7637 35.0879 10.666 34.5703 10.666C34.0332 10.666 33.5889 10.7832 33.2373 11.0176C32.8955 11.252 32.627 11.5742 32.4316 11.9844C32.2461 12.3848 32.1143 12.8486 32.0361 13.376C31.958 13.9033 31.9189 14.46 31.9189 15.0459V15.6025C31.9189 16.1885 31.9971 16.7207 32.1533 17.1992C32.3193 17.6777 32.5537 18.0879 32.8564 18.4297C33.1689 18.7617 33.54 19.0205 33.9697 19.2061C34.4092 19.3916 34.9072 19.4844 35.4639 19.4844C36.1377 19.4844 36.8018 19.3574 37.4561 19.1035C38.1104 18.8496 38.6719 18.4297 39.1406 17.8438L41.3818 20.5098C41.0596 20.9688 40.6006 21.4131 40.0049 21.8428C39.4189 22.2725 38.7158 22.624 37.8955 22.8975C37.0752 23.1611 36.1572 23.293 35.1416 23.293ZM43.8574 0.5H48.7939V19.1035L48.2812 23H43.8574V0.5ZM58.5205 14.8994V15.207C58.5205 16.4082 58.3984 17.502 58.1543 18.4883C57.9102 19.4746 57.5342 20.3291 57.0264 21.0518C56.5186 21.7646 55.8789 22.3164 55.1074 22.707C54.3359 23.0977 53.4229 23.293 52.3682 23.293C51.4111 23.293 50.5908 23.0879 49.9072 22.6777C49.2236 22.2578 48.6523 21.6816 48.1934 20.9492C47.7344 20.207 47.3633 19.3525 47.0801 18.3857C46.7969 17.4092 46.5723 16.3643 46.4062 15.251V14.8848C46.5723 13.7812 46.7969 12.7461 47.0801 11.7793C47.3633 10.8027 47.7344 9.94824 48.1934 9.21582C48.6523 8.47363 49.2188 7.89746 49.8926 7.4873C50.5762 7.06738 51.3916 6.85742 52.3389 6.85742C53.4033 6.85742 54.3213 7.05762 55.0928 7.45801C55.874 7.8584 56.5186 8.41992 57.0264 9.14258C57.5342 9.86523 57.9102 10.7148 58.1543 11.6914C58.3984 12.668 58.5205 13.7373 58.5205 14.8994ZM53.584 15.207V14.8994C53.584 14.3232 53.5498 13.7812 53.4814 13.2734C53.4131 12.7656 53.291 12.3164 53.1152 11.9258C52.9395 11.5352 52.6904 11.2275 52.3682 11.0029C52.0459 10.7783 51.626 10.666 51.1084 10.666C50.5811 10.666 50.1367 10.7539 49.7754 10.9297C49.4238 11.1055 49.1406 11.3594 48.9258 11.6914C48.7207 12.0137 48.5742 12.4141 48.4863 12.8926C48.3984 13.3613 48.3594 13.8936 48.3691 14.4893V15.6465C48.3496 16.457 48.4229 17.1504 48.5889 17.7266C48.7549 18.3027 49.043 18.7422 49.4531 19.0449C49.8633 19.3477 50.4248 19.499 51.1377 19.499C51.665 19.499 52.0898 19.3965 52.4121 19.1914C52.7441 18.9863 52.9932 18.6934 53.1592 18.3125C53.3252 17.9316 53.4375 17.4775 53.4961 16.9502C53.5547 16.4229 53.584 15.8418 53.584 15.207ZM92.0068 7.15039V23H87.0557V7.15039H92.0068ZM86.7627 3.06348C86.7627 2.36035 87.0166 1.78418 87.5244 1.33496C88.0322 0.885742 88.6914 0.661133 89.502 0.661133C90.3125 0.661133 90.9717 0.885742 91.4795 1.33496C91.9873 1.78418 92.2412 2.36035 92.2412 3.06348C92.2412 3.7666 91.9873 4.34277 91.4795 4.79199C90.9717 5.24121 90.3125 5.46582 89.502 5.46582C88.6914 5.46582 88.0322 5.24121 87.5244 4.79199C87.0166 4.34277 86.7627 3.7666 86.7627 3.06348ZM108.091 19.1914V23H95.8154V19.1914H108.091ZM107.944 9.81641L98.0273 23H94.6436V20.2461L104.546 7.15039H107.944V9.81641ZM106.318 7.15039V10.959H94.9365V7.15039H106.318ZM118.755 19.0156V12.4824C118.755 12.0332 118.691 11.6475 118.564 11.3252C118.438 11.0029 118.237 10.7539 117.964 10.5781C117.69 10.3926 117.324 10.2998 116.865 10.2998C116.494 10.2998 116.177 10.3633 115.913 10.4902C115.649 10.6172 115.449 10.8076 115.312 11.0615C115.176 11.3154 115.107 11.6377 115.107 12.0283H110.171C110.171 11.2959 110.332 10.6172 110.654 9.99219C110.986 9.35742 111.455 8.80566 112.061 8.33691C112.676 7.86816 113.408 7.50684 114.258 7.25293C115.117 6.98926 116.074 6.85742 117.129 6.85742C118.389 6.85742 119.512 7.06738 120.498 7.4873C121.494 7.90723 122.28 8.53711 122.856 9.37695C123.433 10.207 123.721 11.252 123.721 12.5117V19.001C123.721 20.0361 123.779 20.8223 123.896 21.3594C124.014 21.8867 124.18 22.3506 124.395 22.751V23H119.443C119.209 22.5117 119.033 21.916 118.916 21.2129C118.809 20.5 118.755 19.7676 118.755 19.0156ZM119.355 13.3174L119.385 15.9541H117.202C116.743 15.9541 116.353 16.0176 116.03 16.1445C115.718 16.2715 115.464 16.4473 115.269 16.6719C115.083 16.8867 114.946 17.1309 114.858 17.4043C114.78 17.6777 114.741 17.9658 114.741 18.2686C114.741 18.5615 114.81 18.8252 114.946 19.0596C115.093 19.2842 115.288 19.46 115.532 19.5869C115.776 19.7139 116.05 19.7773 116.353 19.7773C116.899 19.7773 117.363 19.6748 117.744 19.4697C118.135 19.2549 118.433 18.9961 118.638 18.6934C118.843 18.3906 118.945 18.1074 118.945 17.8438L120.029 19.8652C119.834 20.2559 119.609 20.6514 119.355 21.0518C119.111 21.4521 118.804 21.8232 118.433 22.165C118.071 22.4971 117.627 22.7705 117.1 22.9854C116.572 23.1904 115.933 23.293 115.181 23.293C114.204 23.293 113.306 23.0928 112.485 22.6924C111.675 22.292 111.025 21.7354 110.537 21.0225C110.049 20.2998 109.805 19.4697 109.805 18.5322C109.805 17.7119 109.951 16.9795 110.244 16.335C110.547 15.6904 111.001 15.1436 111.606 14.6943C112.212 14.2451 112.983 13.9033 113.921 13.6689C114.858 13.4346 115.962 13.3174 117.231 13.3174H119.355ZM131.44 11.0762V23H126.504V7.15039H131.118L131.44 11.0762ZM136.128 7.0332L136.04 11.6182C135.845 11.5986 135.581 11.5742 135.249 11.5449C134.917 11.5156 134.639 11.501 134.414 11.501C133.838 11.501 133.34 11.5693 132.92 11.7061C132.51 11.833 132.168 12.0283 131.895 12.292C131.631 12.5459 131.436 12.8682 131.309 13.2588C131.191 13.6494 131.138 14.1035 131.147 14.6211L130.254 14.0352C130.254 12.9707 130.356 12.0039 130.562 11.1348C130.776 10.2559 131.079 9.49902 131.47 8.86426C131.86 8.21973 132.334 7.72656 132.891 7.38477C133.447 7.0332 134.072 6.85742 134.766 6.85742C135.01 6.85742 135.249 6.87207 135.483 6.90137C135.728 6.93066 135.942 6.97461 136.128 7.0332ZM146.646 19.3672V0.5H151.611V23H147.158L146.646 19.3672ZM136.919 15.2656V14.958C136.919 13.7568 137.051 12.6631 137.314 11.6768C137.578 10.6807 137.969 9.82617 138.486 9.11328C139.004 8.39062 139.648 7.83398 140.42 7.44336C141.191 7.05273 142.08 6.85742 143.086 6.85742C143.984 6.85742 144.771 7.06738 145.444 7.4873C146.118 7.89746 146.694 8.47363 147.173 9.21582C147.651 9.95801 148.042 10.8271 148.345 11.8232C148.647 12.8096 148.877 13.874 149.033 15.0166V15.3828C148.877 16.457 148.647 17.4727 148.345 18.4297C148.042 19.377 147.651 20.2168 147.173 20.9492C146.694 21.6816 146.113 22.2578 145.43 22.6777C144.756 23.0879 143.965 23.293 143.057 23.293C142.051 23.293 141.162 23.0928 140.391 22.6924C139.629 22.292 138.989 21.7305 138.472 21.0078C137.964 20.2852 137.578 19.4355 137.314 18.459C137.051 17.4824 136.919 16.418 136.919 15.2656ZM141.855 14.958V15.2656C141.855 15.8613 141.895 16.4131 141.973 16.9209C142.051 17.4287 142.183 17.8779 142.368 18.2686C142.563 18.6494 142.817 18.9473 143.13 19.1621C143.452 19.377 143.848 19.4844 144.316 19.4844C144.951 19.4844 145.474 19.333 145.884 19.0303C146.304 18.7275 146.611 18.2979 146.807 17.7412C147.012 17.1846 147.1 16.5303 147.07 15.7783V14.6211C147.09 13.9766 147.046 13.4102 146.938 12.9219C146.831 12.4238 146.66 12.0088 146.426 11.6768C146.201 11.3447 145.913 11.0957 145.562 10.9297C145.22 10.7539 144.814 10.666 144.346 10.666C143.887 10.666 143.496 10.7734 143.174 10.9883C142.861 11.2031 142.607 11.5059 142.412 11.8965C142.217 12.2773 142.075 12.7314 141.987 13.2588C141.899 13.7764 141.855 14.3428 141.855 14.958Z" fill="white"/>
</svg>
