<svg width="81" height="13" viewBox="0 0 81 13" fill="none" xmlns="http://www.w3.org/2000/svg">
<path d="M3.49219 10.9688L5.75781 0.625H7.10938L7.84375 1.50781L5.42969 12H3.9375L3.49219 10.9688ZM2.89062 0.625L4.80469 11.0469L4.3125 12H2.58594L0.171875 0.625H2.89062ZM9.08594 10.9922L10.9844 0.625H13.6953L11.2812 12H9.5625L9.08594 10.9922ZM8.08594 0.625L10.4062 11.0312L9.9375 12H8.44531L5.97656 1.49219L6.74219 0.625H8.08594ZM35.1328 10.9688L37.3984 0.625H38.75L39.4844 1.50781L37.0703 12H35.5781L35.1328 10.9688ZM34.5312 0.625L36.4453 11.0469L35.9531 12H34.2266L31.8125 0.625H34.5312ZM40.7266 10.9922L42.625 0.625H45.3359L42.9219 12H41.2031L40.7266 10.9922ZM39.7266 0.625L42.0469 11.0312L41.5781 12H40.0859L37.6172 1.49219L38.3828 0.625H39.7266Z" fill="#FFA400"/>
<path d="M18.7422 12.1562C18.0547 12.1562 17.4401 12.0495 16.8984 11.8359C16.3568 11.6172 15.8984 11.3177 15.5234 10.9375C15.1536 10.5573 14.8698 10.1198 14.6719 9.625C14.4792 9.13021 14.3828 8.60677 14.3828 8.05469V7.75781C14.3828 7.13802 14.4688 6.5651 14.6406 6.03906C14.8125 5.50781 15.0677 5.04427 15.4062 4.64844C15.7448 4.2526 16.1693 3.94531 16.6797 3.72656C17.1901 3.5026 17.7839 3.39062 18.4609 3.39062C19.0599 3.39062 19.5964 3.48698 20.0703 3.67969C20.5443 3.8724 20.9453 4.14844 21.2734 4.50781C21.6068 4.86719 21.8594 5.30208 22.0312 5.8125C22.2083 6.32292 22.2969 6.89583 22.2969 7.53125V8.60156H15.3906V6.95312H19.7266V6.75C19.7318 6.46875 19.6823 6.22917 19.5781 6.03125C19.4792 5.83333 19.3333 5.68229 19.1406 5.57812C18.9479 5.47396 18.7135 5.42188 18.4375 5.42188C18.151 5.42188 17.9141 5.48438 17.7266 5.60938C17.5443 5.73438 17.401 5.90625 17.2969 6.125C17.1979 6.33854 17.1276 6.58594 17.0859 6.86719C17.0443 7.14844 17.0234 7.44531 17.0234 7.75781V8.05469C17.0234 8.36719 17.0651 8.65104 17.1484 8.90625C17.237 9.16146 17.362 9.38021 17.5234 9.5625C17.6901 9.73958 17.888 9.8776 18.1172 9.97656C18.3516 10.0755 18.6172 10.125 18.9141 10.125C19.2734 10.125 19.6276 10.0573 19.9766 9.92188C20.3255 9.78646 20.625 9.5625 20.875 9.25L22.0703 10.6719C21.8984 10.9167 21.6536 11.1536 21.3359 11.3828C21.0234 11.612 20.6484 11.7995 20.2109 11.9453C19.7734 12.0859 19.2839 12.1562 18.7422 12.1562ZM23.3906 0H26.0234V9.92188L25.75 12H23.3906V0ZM31.2109 7.67969V7.84375C31.2109 8.48438 31.1458 9.06771 31.0156 9.59375C30.8854 10.1198 30.6849 10.5755 30.4141 10.9609C30.1432 11.3411 29.8021 11.6354 29.3906 11.8438C28.9792 12.0521 28.4922 12.1562 27.9297 12.1562C27.4193 12.1562 26.9818 12.0469 26.6172 11.8281C26.2526 11.6042 25.9479 11.2969 25.7031 10.9062C25.4583 10.5104 25.2604 10.0547 25.1094 9.53906C24.9583 9.01823 24.8385 8.46094 24.75 7.86719V7.67188C24.8385 7.08333 24.9583 6.53125 25.1094 6.01562C25.2604 5.49479 25.4583 5.03906 25.7031 4.64844C25.9479 4.2526 26.25 3.94531 26.6094 3.72656C26.974 3.5026 27.4089 3.39062 27.9141 3.39062C28.4818 3.39062 28.9714 3.4974 29.3828 3.71094C29.7995 3.92448 30.1432 4.22396 30.4141 4.60938C30.6849 4.99479 30.8854 5.44792 31.0156 5.96875C31.1458 6.48958 31.2109 7.0599 31.2109 7.67969ZM28.5781 7.84375V7.67969C28.5781 7.3724 28.5599 7.08333 28.5234 6.8125C28.487 6.54167 28.4219 6.30208 28.3281 6.09375C28.2344 5.88542 28.1016 5.72135 27.9297 5.60156C27.7578 5.48177 27.5339 5.42188 27.2578 5.42188C26.9766 5.42188 26.7396 5.46875 26.5469 5.5625C26.3594 5.65625 26.2083 5.79167 26.0938 5.96875C25.9844 6.14062 25.9062 6.35417 25.8594 6.60938C25.8125 6.85938 25.7917 7.14323 25.7969 7.46094V8.07812C25.7865 8.51042 25.8255 8.88021 25.9141 9.1875C26.0026 9.49479 26.1562 9.72917 26.375 9.89062C26.5938 10.0521 26.8932 10.1328 27.2734 10.1328C27.5547 10.1328 27.7812 10.0781 27.9531 9.96875C28.1302 9.85938 28.263 9.70312 28.3516 9.5C28.4401 9.29688 28.5 9.05469 28.5312 8.77344C28.5625 8.49219 28.5781 8.18229 28.5781 7.84375ZM49.0703 3.54688V12H46.4297V3.54688H49.0703ZM46.2734 1.36719C46.2734 0.992188 46.4089 0.684896 46.6797 0.445312C46.9505 0.205729 47.3021 0.0859375 47.7344 0.0859375C48.1667 0.0859375 48.5182 0.205729 48.7891 0.445312C49.0599 0.684896 49.1953 0.992188 49.1953 1.36719C49.1953 1.74219 49.0599 2.04948 48.7891 2.28906C48.5182 2.52865 48.1667 2.64844 47.7344 2.64844C47.3021 2.64844 46.9505 2.52865 46.6797 2.28906C46.4089 2.04948 46.2734 1.74219 46.2734 1.36719ZM57.6484 9.96875V12H51.1016V9.96875H57.6484ZM57.5703 4.96875L52.2812 12H50.4766V10.5312L55.7578 3.54688H57.5703V4.96875ZM56.7031 3.54688V5.57812H50.6328V3.54688H56.7031ZM63.3359 9.875V6.39062C63.3359 6.15104 63.3021 5.94531 63.2344 5.77344C63.1667 5.60156 63.0599 5.46875 62.9141 5.375C62.7682 5.27604 62.5729 5.22656 62.3281 5.22656C62.1302 5.22656 61.9609 5.26042 61.8203 5.32812C61.6797 5.39583 61.5729 5.4974 61.5 5.63281C61.4271 5.76823 61.3906 5.9401 61.3906 6.14844H58.7578C58.7578 5.75781 58.8438 5.39583 59.0156 5.0625C59.1927 4.72396 59.4427 4.42969 59.7656 4.17969C60.0938 3.92969 60.4844 3.73698 60.9375 3.60156C61.3958 3.46094 61.9062 3.39062 62.4688 3.39062C63.1406 3.39062 63.7396 3.5026 64.2656 3.72656C64.7969 3.95052 65.2161 4.28646 65.5234 4.73438C65.8307 5.17708 65.9844 5.73438 65.9844 6.40625V9.86719C65.9844 10.4193 66.0156 10.8385 66.0781 11.125C66.1406 11.4062 66.2292 11.6536 66.3438 11.8672V12H63.7031C63.5781 11.7396 63.4844 11.4219 63.4219 11.0469C63.3646 10.6667 63.3359 10.276 63.3359 9.875ZM63.6562 6.83594L63.6719 8.24219H62.5078C62.263 8.24219 62.0547 8.27604 61.8828 8.34375C61.7161 8.41146 61.5807 8.50521 61.4766 8.625C61.3776 8.73958 61.3047 8.86979 61.2578 9.01562C61.2161 9.16146 61.1953 9.3151 61.1953 9.47656C61.1953 9.63281 61.2318 9.77344 61.3047 9.89844C61.3828 10.0182 61.487 10.112 61.6172 10.1797C61.7474 10.2474 61.8932 10.2812 62.0547 10.2812C62.3464 10.2812 62.5938 10.2266 62.7969 10.1172C63.0052 10.0026 63.1641 9.86458 63.2734 9.70312C63.3828 9.54167 63.4375 9.39062 63.4375 9.25L64.0156 10.3281C63.9115 10.5365 63.7917 10.7474 63.6562 10.9609C63.526 11.1745 63.362 11.3724 63.1641 11.5547C62.9714 11.7318 62.7344 11.8776 62.4531 11.9922C62.1719 12.1016 61.8307 12.1562 61.4297 12.1562C60.9089 12.1562 60.4297 12.0495 59.9922 11.8359C59.5599 11.6224 59.2135 11.3255 58.9531 10.9453C58.6927 10.5599 58.5625 10.1172 58.5625 9.61719C58.5625 9.17969 58.6406 8.78906 58.7969 8.44531C58.9583 8.10156 59.2005 7.8099 59.5234 7.57031C59.8464 7.33073 60.2578 7.14844 60.7578 7.02344C61.2578 6.89844 61.8464 6.83594 62.5234 6.83594H63.6562ZM70.1016 5.64062V12H67.4688V3.54688H69.9297L70.1016 5.64062ZM72.6016 3.48438L72.5547 5.92969C72.4505 5.91927 72.3099 5.90625 72.1328 5.89062C71.9557 5.875 71.8073 5.86719 71.6875 5.86719C71.3802 5.86719 71.1146 5.90365 70.8906 5.97656C70.6719 6.04427 70.4896 6.14844 70.3438 6.28906C70.2031 6.42448 70.099 6.59635 70.0312 6.80469C69.9688 7.01302 69.9401 7.25521 69.9453 7.53125L69.4688 7.21875C69.4688 6.65104 69.5234 6.13542 69.6328 5.67188C69.7474 5.20312 69.9089 4.79948 70.1172 4.46094C70.3255 4.11719 70.5781 3.85417 70.875 3.67188C71.1719 3.48438 71.5052 3.39062 71.875 3.39062C72.0052 3.39062 72.1328 3.39844 72.2578 3.41406C72.388 3.42969 72.5026 3.45312 72.6016 3.48438ZM78.2109 10.0625V0H80.8594V12H78.4844L78.2109 10.0625ZM73.0234 7.875V7.71094C73.0234 7.07031 73.0938 6.48698 73.2344 5.96094C73.375 5.42969 73.5833 4.97396 73.8594 4.59375C74.1354 4.20833 74.4792 3.91146 74.8906 3.70312C75.3021 3.49479 75.776 3.39062 76.3125 3.39062C76.7917 3.39062 77.2109 3.5026 77.5703 3.72656C77.9297 3.94531 78.237 4.2526 78.4922 4.64844C78.7474 5.04427 78.9557 5.50781 79.1172 6.03906C79.2786 6.5651 79.401 7.13281 79.4844 7.74219V7.9375C79.401 8.51042 79.2786 9.05208 79.1172 9.5625C78.9557 10.0677 78.7474 10.5156 78.4922 10.9062C78.237 11.2969 77.9271 11.6042 77.5625 11.8281C77.2031 12.0469 76.7812 12.1562 76.2969 12.1562C75.7604 12.1562 75.2865 12.0495 74.875 11.8359C74.4688 11.6224 74.1276 11.3229 73.8516 10.9375C73.5807 10.5521 73.375 10.099 73.2344 9.57812C73.0938 9.05729 73.0234 8.48958 73.0234 7.875ZM75.6562 7.71094V7.875C75.6562 8.19271 75.6771 8.48698 75.7188 8.75781C75.7604 9.02865 75.8307 9.26823 75.9297 9.47656C76.0339 9.67969 76.1693 9.83854 76.3359 9.95312C76.5078 10.0677 76.7188 10.125 76.9688 10.125C77.3073 10.125 77.5859 10.0443 77.8047 9.88281C78.0286 9.72135 78.1927 9.49219 78.2969 9.19531C78.4062 8.89844 78.4531 8.54948 78.4375 8.14844V7.53125C78.4479 7.1875 78.4245 6.88542 78.3672 6.625C78.3099 6.35938 78.2188 6.13802 78.0938 5.96094C77.974 5.78385 77.8203 5.65104 77.6328 5.5625C77.4505 5.46875 77.2344 5.42188 76.9844 5.42188C76.7396 5.42188 76.5312 5.47917 76.3594 5.59375C76.1927 5.70833 76.0573 5.86979 75.9531 6.07812C75.849 6.28125 75.7734 6.52344 75.7266 6.80469C75.6797 7.08073 75.6562 7.38281 75.6562 7.71094Z" fill="white"/>
</svg>
